<?xml version="1.0" standalone="no"?>
<svg viewBox="0 0 200 200" xmlns="http://www.w3.org/2000/svg">
  <path fill="#FF0066" d="M30.5,-47.7C39.7,-41.6,47.3,-33.3,51.1,-23.7C54.9,-14.1,54.8,-3.1,57.3,11.1C59.8,25.4,64.8,43,59.3,54C53.8,65,37.8,69.5,23.7,67.9C9.5,66.3,-2.7,58.5,-15.9,54.4C-29,50.4,-43.2,50,-56.9,43.9C-70.5,37.8,-83.7,25.9,-87.8,11.3C-91.9,-3.2,-86.9,-20.3,-76.1,-31C-65.3,-41.6,-48.7,-45.8,-35.1,-49.8C-21.4,-53.9,-10.7,-57.9,0,-57.8C10.7,-57.8,21.3,-53.8,30.5,-47.7Z" transform="translate(100 100)" />
</svg>
